<mxfile host="Electron" modified="2023-04-05T08:03:59.939Z" agent="Mozilla/5.0 (Macintosh; Intel Mac OS X 10_15_7) AppleWebKit/537.36 (KHTML, like Gecko) draw.io/21.1.2 Chrome/106.0.5249.199 Electron/21.4.3 Safari/537.36" etag="a0pZUC4j4NqDHgql5do4" version="21.1.2" type="device">
  <diagram name="第 1 页" id="_5_IJzj8ZorIaS54_qgK">
    <mxGraphModel dx="954" dy="674" grid="1" gridSize="10" guides="1" tooltips="1" connect="1" arrows="1" fold="1" page="1" pageScale="1" pageWidth="827" pageHeight="1169" math="0" shadow="0">
      <root>
        <mxCell id="0" />
        <mxCell id="1" parent="0" />
        <mxCell id="7TQcLc4MDr7b2Hdm_d1O-1" value="Apaas层能力" style="rounded=0;whiteSpace=wrap;html=1;fontSize=12;align=center;verticalAlign=top;fillColor=#fff2cc;strokeColor=#d6b656;" vertex="1" parent="1">
          <mxGeometry x="90" y="910" width="1360" height="190" as="geometry" />
        </mxCell>
        <mxCell id="7TQcLc4MDr7b2Hdm_d1O-2" value="营销" style="rounded=0;whiteSpace=wrap;html=1;fontSize=14;align=center;verticalAlign=top;fillColor=#d5e8d4;strokeColor=#82b366;fontStyle=1" vertex="1" parent="1">
          <mxGeometry x="670" y="310" width="780" height="370" as="geometry" />
        </mxCell>
        <mxCell id="7TQcLc4MDr7b2Hdm_d1O-3" value="活动管理" style="rounded=0;whiteSpace=wrap;html=1;fontSize=12;align=center;verticalAlign=top;fillColor=none;" vertex="1" parent="1">
          <mxGeometry x="680" y="335.25" width="430" height="214.75" as="geometry" />
        </mxCell>
        <mxCell id="7TQcLc4MDr7b2Hdm_d1O-4" value="DAC" style="rounded=0;whiteSpace=wrap;html=1;fontSize=12;align=center;verticalAlign=top;fillColor=#e1d5e7;strokeColor=#9673a6;" vertex="1" parent="1">
          <mxGeometry x="90" y="160" width="1360" height="120" as="geometry" />
        </mxCell>
        <mxCell id="7TQcLc4MDr7b2Hdm_d1O-5" value="客户" style="rounded=0;whiteSpace=wrap;html=1;fontSize=14;align=center;verticalAlign=top;fillColor=#d5e8d4;strokeColor=#82b366;fontStyle=1" vertex="1" parent="1">
          <mxGeometry x="90" y="310" width="570" height="370" as="geometry" />
        </mxCell>
        <mxCell id="7TQcLc4MDr7b2Hdm_d1O-6" value="会员管理" style="rounded=0;whiteSpace=wrap;html=1;fontSize=12;align=center;verticalAlign=top;fillColor=none;" vertex="1" parent="1">
          <mxGeometry x="100" y="340" width="210" height="160" as="geometry" />
        </mxCell>
        <mxCell id="7TQcLc4MDr7b2Hdm_d1O-7" value="会员体系管理" style="rounded=0;whiteSpace=wrap;html=1;fontSize=12;align=center;verticalAlign=top;fillColor=none;" vertex="1" parent="1">
          <mxGeometry x="100" y="510" width="210" height="165" as="geometry" />
        </mxCell>
        <mxCell id="7TQcLc4MDr7b2Hdm_d1O-8" value="" style="rounded=1;whiteSpace=wrap;html=1;dashed=1;fillColor=none;" vertex="1" parent="1">
          <mxGeometry x="105" y="540" width="90" height="132" as="geometry" />
        </mxCell>
        <mxCell id="7TQcLc4MDr7b2Hdm_d1O-9" value="忠诚度管理" style="rounded=0;whiteSpace=wrap;html=1;fontSize=12;align=center;verticalAlign=top;fillColor=none;" vertex="1" parent="1">
          <mxGeometry x="320" y="340" width="320" height="160" as="geometry" />
        </mxCell>
        <mxCell id="7TQcLc4MDr7b2Hdm_d1O-10" value="基础支撑服务" style="rounded=0;whiteSpace=wrap;html=1;fontSize=12;align=center;verticalAlign=top;fillColor=#fff2cc;strokeColor=#d6b656;" vertex="1" parent="1">
          <mxGeometry x="90" y="700" width="1360" height="190" as="geometry" />
        </mxCell>
        <mxCell id="7TQcLc4MDr7b2Hdm_d1O-11" value="会员体系" style="rounded=1;whiteSpace=wrap;html=1;fontSize=12;align=center;verticalAlign=middle;fillColor=#ffe6cc;strokeColor=#d79b00;" vertex="1" parent="1">
          <mxGeometry x="110" y="550" width="80" height="30" as="geometry" />
        </mxCell>
        <mxCell id="7TQcLc4MDr7b2Hdm_d1O-12" value="储值&lt;br&gt;储值套餐" style="rounded=1;whiteSpace=wrap;html=1;fontSize=12;align=center;verticalAlign=middle;fillColor=#ffe6cc;strokeColor=#d79b00;" vertex="1" parent="1">
          <mxGeometry x="340" y="420" width="80" height="30" as="geometry" />
        </mxCell>
        <mxCell id="7TQcLc4MDr7b2Hdm_d1O-13" value="预警&lt;br&gt;交易/积分/手机号变更/" style="rounded=1;whiteSpace=wrap;html=1;fontSize=12;align=center;verticalAlign=middle;fillColor=#ffe6cc;strokeColor=#d79b00;" vertex="1" parent="1">
          <mxGeometry x="910" y="820" width="180" height="50" as="geometry" />
        </mxCell>
        <mxCell id="7TQcLc4MDr7b2Hdm_d1O-14" value="消息通知&lt;br&gt;资产变动/参与活动/优惠券到期/..." style="rounded=1;whiteSpace=wrap;html=1;fontSize=12;align=center;verticalAlign=middle;fillColor=#ffe6cc;strokeColor=#d79b00;" vertex="1" parent="1">
          <mxGeometry x="375" y="820" width="190" height="50" as="geometry" />
        </mxCell>
        <mxCell id="7TQcLc4MDr7b2Hdm_d1O-15" value="群体画像" style="rounded=1;whiteSpace=wrap;html=1;fontSize=12;fontColor=#333333;align=center;verticalAlign=middle;fillColor=#f5f5f5;strokeColor=#666666;" vertex="1" parent="1">
          <mxGeometry x="630" y="200" width="100" height="50" as="geometry" />
        </mxCell>
        <mxCell id="7TQcLc4MDr7b2Hdm_d1O-16" value="标签" style="rounded=1;whiteSpace=wrap;html=1;fontSize=12;align=center;verticalAlign=middle;fillColor=#ffe6cc;strokeColor=#d79b00;" vertex="1" parent="1">
          <mxGeometry x="215" y="420" width="80" height="30" as="geometry" />
        </mxCell>
        <mxCell id="7TQcLc4MDr7b2Hdm_d1O-17" value="智能营销-营销自动化" style="rounded=0;whiteSpace=wrap;html=1;fontSize=12;align=center;verticalAlign=top;fillColor=none;" vertex="1" parent="1">
          <mxGeometry x="1130" y="340" width="170" height="140" as="geometry" />
        </mxCell>
        <mxCell id="7TQcLc4MDr7b2Hdm_d1O-18" value="自动化营销引擎" style="rounded=1;whiteSpace=wrap;html=1;fontSize=12;fontColor=#333333;align=center;verticalAlign=middle;fillColor=#f5f5f5;strokeColor=#666666;" vertex="1" parent="1">
          <mxGeometry x="1190" y="382.5" width="100" height="25" as="geometry" />
        </mxCell>
        <mxCell id="7TQcLc4MDr7b2Hdm_d1O-19" value="营销触达" style="rounded=0;whiteSpace=wrap;html=1;fontSize=12;align=center;verticalAlign=top;fillColor=none;" vertex="1" parent="1">
          <mxGeometry x="1310" y="340" width="100" height="330" as="geometry" />
        </mxCell>
        <mxCell id="7TQcLc4MDr7b2Hdm_d1O-20" value="企业微信&lt;br&gt;scrm" style="rounded=1;whiteSpace=wrap;html=1;fontSize=12;align=center;verticalAlign=middle;fillColor=#ffe6cc;strokeColor=#d79b00;" vertex="1" parent="1">
          <mxGeometry x="1324.5" y="380" width="70.5" height="30" as="geometry" />
        </mxCell>
        <mxCell id="7TQcLc4MDr7b2Hdm_d1O-21" value="RFM" style="rounded=1;whiteSpace=wrap;html=1;fontSize=12;align=center;verticalAlign=middle;fillColor=#ffe6cc;strokeColor=#d79b00;" vertex="1" parent="1">
          <mxGeometry x="120" y="200" width="100" height="50" as="geometry" />
        </mxCell>
        <mxCell id="7TQcLc4MDr7b2Hdm_d1O-22" value="会员管理&lt;br&gt;导入/信息管理/..." style="rounded=1;whiteSpace=wrap;html=1;fontSize=12;align=center;verticalAlign=middle;fillColor=#ffe6cc;strokeColor=#d79b00;" vertex="1" parent="1">
          <mxGeometry x="105" y="374" width="100" height="30" as="geometry" />
        </mxCell>
        <mxCell id="7TQcLc4MDr7b2Hdm_d1O-23" value="三方会员系统对接服务&lt;br&gt;企迈/云徙/心想荟等" style="rounded=1;whiteSpace=wrap;html=1;fontSize=12;align=center;verticalAlign=middle;fillColor=#ffe6cc;strokeColor=#d79b00;" vertex="1" parent="1">
          <mxGeometry x="110" y="730" width="190" height="50" as="geometry" />
        </mxCell>
        <mxCell id="7TQcLc4MDr7b2Hdm_d1O-24" value="全渠道对接服务&lt;br&gt;微信/支付宝/抖音/..." style="rounded=1;whiteSpace=wrap;html=1;fontSize=12;align=center;verticalAlign=middle;fillColor=#ffe6cc;strokeColor=#d79b00;" vertex="1" parent="1">
          <mxGeometry x="650" y="730" width="180" height="50" as="geometry" />
        </mxCell>
        <mxCell id="7TQcLc4MDr7b2Hdm_d1O-25" value="卡方案" style="rounded=1;whiteSpace=wrap;html=1;fontSize=12;align=center;verticalAlign=middle;fillColor=#ffe6cc;strokeColor=#d79b00;" vertex="1" parent="1">
          <mxGeometry x="110" y="590" width="80" height="30" as="geometry" />
        </mxCell>
        <mxCell id="7TQcLc4MDr7b2Hdm_d1O-26" value="卡等级" style="rounded=1;whiteSpace=wrap;html=1;fontSize=12;align=center;verticalAlign=middle;fillColor=#ffe6cc;strokeColor=#d79b00;" vertex="1" parent="1">
          <mxGeometry x="110" y="630" width="80" height="30" as="geometry" />
        </mxCell>
        <mxCell id="7TQcLc4MDr7b2Hdm_d1O-27" value="积分方案" style="rounded=1;whiteSpace=wrap;html=1;fontSize=12;align=center;verticalAlign=middle;fillColor=#ffe6cc;strokeColor=#d79b00;" vertex="1" parent="1">
          <mxGeometry x="220" y="550" width="80" height="30" as="geometry" />
        </mxCell>
        <mxCell id="7TQcLc4MDr7b2Hdm_d1O-28" value="权益方案" style="rounded=1;whiteSpace=wrap;html=1;fontSize=12;align=center;verticalAlign=middle;fillColor=#ffe6cc;strokeColor=#d79b00;" vertex="1" parent="1">
          <mxGeometry x="220" y="591" width="80" height="30" as="geometry" />
        </mxCell>
        <mxCell id="7TQcLc4MDr7b2Hdm_d1O-29" value="成长值方案" style="rounded=1;whiteSpace=wrap;html=1;fontSize=12;align=center;verticalAlign=middle;fillColor=#ffe6cc;strokeColor=#d79b00;" vertex="1" parent="1">
          <mxGeometry x="220" y="630" width="80" height="30" as="geometry" />
        </mxCell>
        <mxCell id="7TQcLc4MDr7b2Hdm_d1O-30" value="群体" style="rounded=1;whiteSpace=wrap;html=1;fontSize=12;align=center;verticalAlign=middle;fillColor=#ffe6cc;strokeColor=#d79b00;" vertex="1" parent="1">
          <mxGeometry x="215" y="461" width="80" height="29" as="geometry" />
        </mxCell>
        <mxCell id="7TQcLc4MDr7b2Hdm_d1O-31" value="交易/行为" style="rounded=0;whiteSpace=wrap;html=1;fontSize=12;align=center;verticalAlign=top;fillColor=none;" vertex="1" parent="1">
          <mxGeometry x="320" y="511" width="320" height="159" as="geometry" />
        </mxCell>
        <mxCell id="7TQcLc4MDr7b2Hdm_d1O-32" value="消费" style="rounded=1;whiteSpace=wrap;html=1;fontSize=12;align=center;verticalAlign=middle;fillColor=#ffe6cc;strokeColor=#d79b00;" vertex="1" parent="1">
          <mxGeometry x="330" y="550" width="80" height="30" as="geometry" />
        </mxCell>
        <mxCell id="7TQcLc4MDr7b2Hdm_d1O-33" value="储值" style="rounded=1;whiteSpace=wrap;html=1;fontSize=12;align=center;verticalAlign=middle;fillColor=#ffe6cc;strokeColor=#d79b00;" vertex="1" parent="1">
          <mxGeometry x="330" y="590" width="80" height="30" as="geometry" />
        </mxCell>
        <mxCell id="7TQcLc4MDr7b2Hdm_d1O-34" value="评价管理" style="rounded=1;whiteSpace=wrap;html=1;fontSize=12;align=center;verticalAlign=middle;fillColor=#ffe6cc;strokeColor=#d79b00;" vertex="1" parent="1">
          <mxGeometry x="550" y="591" width="80" height="30" as="geometry" />
        </mxCell>
        <mxCell id="7TQcLc4MDr7b2Hdm_d1O-35" value="推送&lt;br&gt;数据报表/券报告等" style="rounded=1;whiteSpace=wrap;html=1;fontSize=12;fontColor=#333333;align=center;verticalAlign=middle;fillColor=#f5f5f5;strokeColor=#666666;" vertex="1" parent="1">
          <mxGeometry x="104" y="820" width="196" height="50" as="geometry" />
        </mxCell>
        <mxCell id="7TQcLc4MDr7b2Hdm_d1O-36" value="积分" style="rounded=1;whiteSpace=wrap;html=1;fontSize=12;align=center;verticalAlign=middle;fillColor=#ffe6cc;strokeColor=#d79b00;" vertex="1" parent="1">
          <mxGeometry x="340" y="375" width="80" height="30" as="geometry" />
        </mxCell>
        <mxCell id="7TQcLc4MDr7b2Hdm_d1O-37" value="等级" style="rounded=1;whiteSpace=wrap;html=1;fontSize=12;align=center;verticalAlign=middle;fillColor=#ffe6cc;strokeColor=#d79b00;" vertex="1" parent="1">
          <mxGeometry x="440" y="375" width="80" height="30" as="geometry" />
        </mxCell>
        <mxCell id="7TQcLc4MDr7b2Hdm_d1O-38" value="成长值" style="rounded=1;whiteSpace=wrap;html=1;fontSize=12;align=center;verticalAlign=middle;fillColor=#ffe6cc;strokeColor=#d79b00;" vertex="1" parent="1">
          <mxGeometry x="550" y="375" width="80" height="30" as="geometry" />
        </mxCell>
        <mxCell id="7TQcLc4MDr7b2Hdm_d1O-39" value="权益&lt;br&gt;付费权益" style="rounded=1;whiteSpace=wrap;html=1;fontSize=12;align=center;verticalAlign=middle;fillColor=#ffe6cc;strokeColor=#d79b00;" vertex="1" parent="1">
          <mxGeometry x="440" y="420" width="80" height="30" as="geometry" />
        </mxCell>
        <mxCell id="7TQcLc4MDr7b2Hdm_d1O-40" value="三方权益" style="rounded=1;whiteSpace=wrap;html=1;fontSize=12;align=center;verticalAlign=middle;fillColor=#ffe6cc;strokeColor=#d79b00;" vertex="1" parent="1">
          <mxGeometry x="550" y="420" width="80" height="30" as="geometry" />
        </mxCell>
        <mxCell id="7TQcLc4MDr7b2Hdm_d1O-41" value="行为/事件" style="rounded=1;whiteSpace=wrap;html=1;fontSize=12;fontColor=#333333;align=center;verticalAlign=middle;fillColor=#f5f5f5;strokeColor=#666666;" vertex="1" parent="1">
          <mxGeometry x="330" y="630" width="80" height="30" as="geometry" />
        </mxCell>
        <mxCell id="7TQcLc4MDr7b2Hdm_d1O-42" value="监控&lt;br&gt;活动执行" style="rounded=1;whiteSpace=wrap;html=1;fontSize=12;align=center;verticalAlign=middle;fillColor=#ffe6cc;strokeColor=#d79b00;" vertex="1" parent="1">
          <mxGeometry x="650" y="820" width="170" height="50" as="geometry" />
        </mxCell>
        <mxCell id="7TQcLc4MDr7b2Hdm_d1O-43" value="互动活动内容中心" style="rounded=0;whiteSpace=wrap;html=1;fontSize=12;align=center;verticalAlign=top;fillColor=none;" vertex="1" parent="1">
          <mxGeometry x="920" y="560" width="190" height="110" as="geometry" />
        </mxCell>
        <mxCell id="7TQcLc4MDr7b2Hdm_d1O-44" value="互动营销活动管理&lt;br&gt;抽奖/分享裂变/拼团/..." style="rounded=1;whiteSpace=wrap;html=1;fontSize=12;align=center;verticalAlign=middle;fillColor=#ffe6cc;strokeColor=#d79b00;" vertex="1" parent="1">
          <mxGeometry x="687" y="370.5" width="185" height="39" as="geometry" />
        </mxCell>
        <mxCell id="7TQcLc4MDr7b2Hdm_d1O-45" value="互斥规则" style="rounded=1;whiteSpace=wrap;html=1;fontSize=12;align=center;verticalAlign=middle;fillColor=#ffe6cc;strokeColor=#d79b00;" vertex="1" parent="1">
          <mxGeometry x="902" y="417.5" width="88" height="30" as="geometry" />
        </mxCell>
        <mxCell id="7TQcLc4MDr7b2Hdm_d1O-46" value="券模版管理" style="rounded=1;whiteSpace=wrap;html=1;fontSize=12;align=center;verticalAlign=middle;fillColor=#ffe6cc;strokeColor=#d79b00;" vertex="1" parent="1">
          <mxGeometry x="685" y="590" width="80" height="30" as="geometry" />
        </mxCell>
        <mxCell id="7TQcLc4MDr7b2Hdm_d1O-47" value="券批次管理" style="rounded=1;whiteSpace=wrap;html=1;fontSize=12;align=center;verticalAlign=middle;fillColor=#ffe6cc;strokeColor=#d79b00;" vertex="1" parent="1">
          <mxGeometry x="777" y="591" width="80" height="30" as="geometry" />
        </mxCell>
        <mxCell id="7TQcLc4MDr7b2Hdm_d1O-48" value="营销日历" style="rounded=1;whiteSpace=wrap;html=1;fontSize=12;align=center;verticalAlign=middle;fillColor=#ffe6cc;strokeColor=#d79b00;" vertex="1" parent="1">
          <mxGeometry x="685" y="420" width="75" height="30" as="geometry" />
        </mxCell>
        <mxCell id="7TQcLc4MDr7b2Hdm_d1O-49" value="券包管理" style="rounded=1;whiteSpace=wrap;html=1;fontSize=12;align=center;verticalAlign=middle;fillColor=#ffe6cc;strokeColor=#d79b00;" vertex="1" parent="1">
          <mxGeometry x="685" y="630" width="80" height="30" as="geometry" />
        </mxCell>
        <mxCell id="7TQcLc4MDr7b2Hdm_d1O-50" value="黑名单管理" style="rounded=1;whiteSpace=wrap;html=1;fontSize=12;align=center;verticalAlign=middle;fillColor=#ffe6cc;strokeColor=#d79b00;" vertex="1" parent="1">
          <mxGeometry x="110" y="460" width="80" height="30" as="geometry" />
        </mxCell>
        <mxCell id="7TQcLc4MDr7b2Hdm_d1O-51" value="账户资产管理" style="rounded=1;whiteSpace=wrap;html=1;fontSize=12;align=center;verticalAlign=middle;fillColor=#ffe6cc;strokeColor=#d79b00;" vertex="1" parent="1">
          <mxGeometry x="110" y="415" width="80" height="30" as="geometry" />
        </mxCell>
        <mxCell id="7TQcLc4MDr7b2Hdm_d1O-52" value="会员分析" style="rounded=1;whiteSpace=wrap;html=1;fontSize=12;align=center;verticalAlign=middle;fillColor=#ffe6cc;strokeColor=#d79b00;" vertex="1" parent="1">
          <mxGeometry x="380" y="200" width="100" height="50" as="geometry" />
        </mxCell>
        <mxCell id="7TQcLc4MDr7b2Hdm_d1O-53" value="会员分析" style="rounded=1;whiteSpace=wrap;html=1;fontSize=12;align=center;verticalAlign=middle;fillColor=#ffe6cc;strokeColor=#d79b00;" vertex="1" parent="1">
          <mxGeometry x="500" y="200" width="100" height="50" as="geometry" />
        </mxCell>
        <mxCell id="7TQcLc4MDr7b2Hdm_d1O-54" value="精准营销" style="rounded=0;whiteSpace=wrap;html=1;fontSize=12;align=center;verticalAlign=top;fillColor=none;" vertex="1" parent="1">
          <mxGeometry x="1130" y="490" width="170" height="180" as="geometry" />
        </mxCell>
        <mxCell id="7TQcLc4MDr7b2Hdm_d1O-55" value="群体圈选" style="rounded=1;whiteSpace=wrap;html=1;fontSize=12;align=center;verticalAlign=middle;fillColor=#ffe6cc;strokeColor=#d79b00;" vertex="1" parent="1">
          <mxGeometry x="1160" y="540" width="80" height="30" as="geometry" />
        </mxCell>
        <mxCell id="7TQcLc4MDr7b2Hdm_d1O-56" value="营销效果分析" style="rounded=1;whiteSpace=wrap;html=1;fontSize=12;fontColor=#333333;align=center;verticalAlign=middle;fillColor=#f5f5f5;strokeColor=#666666;" vertex="1" parent="1">
          <mxGeometry x="757" y="200" width="100" height="50" as="geometry" />
        </mxCell>
        <mxCell id="7TQcLc4MDr7b2Hdm_d1O-57" value="数据看板" style="rounded=1;whiteSpace=wrap;html=1;fontSize=12;align=center;verticalAlign=middle;fillColor=#ffe6cc;strokeColor=#d79b00;" vertex="1" parent="1">
          <mxGeometry x="250" y="200" width="100" height="50" as="geometry" />
        </mxCell>
        <mxCell id="7TQcLc4MDr7b2Hdm_d1O-58" value="评价" style="rounded=1;whiteSpace=wrap;html=1;fontSize=12;align=center;verticalAlign=middle;fillColor=#ffe6cc;strokeColor=#d79b00;" vertex="1" parent="1">
          <mxGeometry x="550" y="550" width="80" height="30" as="geometry" />
        </mxCell>
        <mxCell id="7TQcLc4MDr7b2Hdm_d1O-59" value="公众号" style="rounded=1;whiteSpace=wrap;html=1;fontSize=12;align=center;verticalAlign=middle;fillColor=#fff2cc;strokeColor=#d6b656;" vertex="1" parent="1">
          <mxGeometry x="1324.5" y="523.75" width="70" height="26.25" as="geometry" />
        </mxCell>
        <mxCell id="7TQcLc4MDr7b2Hdm_d1O-60" value="视频号" style="rounded=1;whiteSpace=wrap;html=1;fontSize=12;fontColor=#333333;align=center;verticalAlign=middle;fillColor=#f5f5f5;strokeColor=#666666;" vertex="1" parent="1">
          <mxGeometry x="1326.75" y="565" width="65.5" height="25" as="geometry" />
        </mxCell>
        <mxCell id="7TQcLc4MDr7b2Hdm_d1O-61" value="千人千面" style="rounded=1;whiteSpace=wrap;html=1;fontSize=12;fontColor=#333333;align=center;verticalAlign=middle;fillColor=#f5f5f5;strokeColor=#666666;" vertex="1" parent="1">
          <mxGeometry x="1160" y="590" width="80" height="30" as="geometry" />
        </mxCell>
        <mxCell id="7TQcLc4MDr7b2Hdm_d1O-62" value="三方平台商家券" style="rounded=1;whiteSpace=wrap;html=1;fontSize=12;align=center;verticalAlign=middle;fillColor=#ffe6cc;strokeColor=#d79b00;" vertex="1" parent="1">
          <mxGeometry x="777" y="630" width="88" height="30" as="geometry" />
        </mxCell>
        <mxCell id="7TQcLc4MDr7b2Hdm_d1O-63" value="礼品卡小程序" style="rounded=1;whiteSpace=wrap;html=1;fontSize=12;align=center;verticalAlign=middle;fillColor=#ffe6cc;strokeColor=#d79b00;" vertex="1" parent="1">
          <mxGeometry x="770" y="420" width="100" height="30" as="geometry" />
        </mxCell>
        <mxCell id="7TQcLc4MDr7b2Hdm_d1O-64" value="h5" style="rounded=1;whiteSpace=wrap;html=1;fontSize=12;fontColor=#333333;align=center;verticalAlign=middle;fillColor=#f5f5f5;strokeColor=#666666;" vertex="1" parent="1">
          <mxGeometry x="1324.5" y="430" width="70.5" height="30" as="geometry" />
        </mxCell>
        <mxCell id="7TQcLc4MDr7b2Hdm_d1O-65" value="企业微信(私域)&lt;br&gt;群管理/分组/.." style="rounded=1;whiteSpace=wrap;html=1;fontSize=12;align=center;verticalAlign=middle;fillColor=#ffe6cc;strokeColor=#d79b00;" vertex="1" parent="1">
          <mxGeometry x="215" y="375" width="90" height="30" as="geometry" />
        </mxCell>
        <mxCell id="7TQcLc4MDr7b2Hdm_d1O-66" value="微信插件" style="rounded=1;whiteSpace=wrap;html=1;fontSize=12;fontColor=#333333;align=center;verticalAlign=middle;fillColor=#f5f5f5;strokeColor=#666666;" vertex="1" parent="1">
          <mxGeometry x="1324.5" y="480" width="70.5" height="30" as="geometry" />
        </mxCell>
        <mxCell id="7TQcLc4MDr7b2Hdm_d1O-67" value="短信" style="rounded=1;whiteSpace=wrap;html=1;fontSize=12;fontColor=#333333;align=center;verticalAlign=middle;fillColor=#f5f5f5;strokeColor=#666666;" vertex="1" parent="1">
          <mxGeometry x="1326.75" y="605" width="65.5" height="25" as="geometry" />
        </mxCell>
        <mxCell id="7TQcLc4MDr7b2Hdm_d1O-68" value="流程设计" style="rounded=1;whiteSpace=wrap;html=1;fontSize=12;fontColor=#333333;align=center;verticalAlign=middle;fillColor=#f5f5f5;strokeColor=#666666;" vertex="1" parent="1">
          <mxGeometry x="1190" y="415" width="100" height="25" as="geometry" />
        </mxCell>
        <mxCell id="7TQcLc4MDr7b2Hdm_d1O-69" value="游戏" style="rounded=1;whiteSpace=wrap;html=1;fontSize=12;fontColor=#333333;align=center;verticalAlign=middle;fillColor=#f5f5f5;strokeColor=#666666;" vertex="1" parent="1">
          <mxGeometry x="940" y="591" width="75" height="30" as="geometry" />
        </mxCell>
        <mxCell id="7TQcLc4MDr7b2Hdm_d1O-70" value="付费会员" style="rounded=1;whiteSpace=wrap;html=1;fontSize=12;align=center;verticalAlign=middle;fillColor=#ffe6cc;strokeColor=#d79b00;" vertex="1" parent="1">
          <mxGeometry x="340" y="460" width="80" height="30" as="geometry" />
        </mxCell>
        <mxCell id="7TQcLc4MDr7b2Hdm_d1O-71" value="预测" style="rounded=1;whiteSpace=wrap;html=1;fontSize=12;fontColor=#333333;align=center;verticalAlign=middle;fillColor=#f5f5f5;strokeColor=#666666;" vertex="1" parent="1">
          <mxGeometry x="1326.75" y="200" width="100" height="50" as="geometry" />
        </mxCell>
        <mxCell id="7TQcLc4MDr7b2Hdm_d1O-72" value="积分兑换" style="rounded=1;whiteSpace=wrap;html=1;fontSize=12;align=center;verticalAlign=middle;fillColor=#ffe6cc;strokeColor=#d79b00;" vertex="1" parent="1">
          <mxGeometry x="440" y="552" width="80" height="30" as="geometry" />
        </mxCell>
        <mxCell id="7TQcLc4MDr7b2Hdm_d1O-73" value="流失分析" style="rounded=1;whiteSpace=wrap;html=1;fontSize=12;fontColor=#333333;align=center;verticalAlign=middle;fillColor=#f5f5f5;strokeColor=#666666;" vertex="1" parent="1">
          <mxGeometry x="872" y="200" width="100" height="50" as="geometry" />
        </mxCell>
        <mxCell id="7TQcLc4MDr7b2Hdm_d1O-74" value="路径分析" style="rounded=1;whiteSpace=wrap;html=1;fontSize=12;fontColor=#333333;align=center;verticalAlign=middle;fillColor=#f5f5f5;strokeColor=#666666;" vertex="1" parent="1">
          <mxGeometry x="990" y="200" width="100" height="50" as="geometry" />
        </mxCell>
        <mxCell id="7TQcLc4MDr7b2Hdm_d1O-75" value="运行实时监控分析" style="rounded=1;whiteSpace=wrap;html=1;fontSize=12;fontColor=#333333;align=center;verticalAlign=middle;fillColor=#f5f5f5;strokeColor=#666666;" vertex="1" parent="1">
          <mxGeometry x="1190" y="447.5" width="100" height="25" as="geometry" />
        </mxCell>
        <mxCell id="7TQcLc4MDr7b2Hdm_d1O-76" value="券/储值/积分&lt;br&gt;分账报表" style="rounded=1;whiteSpace=wrap;html=1;fontSize=12;align=center;verticalAlign=middle;fillColor=#ffe6cc;strokeColor=#d79b00;" vertex="1" parent="1">
          <mxGeometry x="1120" y="200" width="100" height="50" as="geometry" />
        </mxCell>
        <mxCell id="7TQcLc4MDr7b2Hdm_d1O-77" value="会员日" style="rounded=1;whiteSpace=wrap;html=1;fontSize=12;align=center;verticalAlign=middle;fillColor=#ffe6cc;strokeColor=#d79b00;" vertex="1" parent="1">
          <mxGeometry x="440" y="461" width="80" height="30" as="geometry" />
        </mxCell>
        <mxCell id="7TQcLc4MDr7b2Hdm_d1O-78" value="企业会员" style="rounded=1;whiteSpace=wrap;html=1;fontSize=12;align=center;verticalAlign=middle;fillColor=#ffe6cc;strokeColor=#d79b00;" vertex="1" parent="1">
          <mxGeometry x="550" y="461" width="80" height="30" as="geometry" />
        </mxCell>
        <mxCell id="7TQcLc4MDr7b2Hdm_d1O-79" value="促销活动管理" style="rounded=1;whiteSpace=wrap;html=1;fontSize=12;align=center;verticalAlign=middle;fillColor=#ffe6cc;strokeColor=#d79b00;" vertex="1" parent="1">
          <mxGeometry x="900" y="372" width="190" height="36" as="geometry" />
        </mxCell>
        <mxCell id="7TQcLc4MDr7b2Hdm_d1O-80" value="卡券中心" style="rounded=0;whiteSpace=wrap;html=1;fontSize=12;align=center;verticalAlign=top;fillColor=none;" vertex="1" parent="1">
          <mxGeometry x="680" y="560" width="230" height="110" as="geometry" />
        </mxCell>
        <mxCell id="7TQcLc4MDr7b2Hdm_d1O-81" value="促销计算引擎" style="rounded=1;whiteSpace=wrap;html=1;fontSize=12;align=center;verticalAlign=middle;fillColor=#ffe6cc;strokeColor=#d79b00;" vertex="1" parent="1">
          <mxGeometry x="1000" y="417.5" width="90" height="30" as="geometry" />
        </mxCell>
        <mxCell id="7TQcLc4MDr7b2Hdm_d1O-82" value="活动组件" style="rounded=1;whiteSpace=wrap;html=1;fontSize=12;fontColor=#333333;align=center;verticalAlign=middle;fillColor=#f5f5f5;strokeColor=#666666;" vertex="1" parent="1">
          <mxGeometry x="1030" y="630" width="75" height="30" as="geometry" />
        </mxCell>
        <mxCell id="7TQcLc4MDr7b2Hdm_d1O-83" value="活动装修" style="rounded=1;whiteSpace=wrap;html=1;fontSize=12;fontColor=#333333;align=center;verticalAlign=middle;fillColor=#f5f5f5;strokeColor=#666666;" vertex="1" parent="1">
          <mxGeometry x="1030" y="590" width="75" height="30" as="geometry" />
        </mxCell>
        <mxCell id="7TQcLc4MDr7b2Hdm_d1O-84" value="风控&lt;br&gt;风控规则/策略/预警" style="rounded=1;whiteSpace=wrap;html=1;fontSize=12;align=center;verticalAlign=middle;fillColor=#ffe6cc;strokeColor=#d79b00;" vertex="1" parent="1">
          <mxGeometry x="380" y="730" width="170" height="50" as="geometry" />
        </mxCell>
        <mxCell id="7TQcLc4MDr7b2Hdm_d1O-85" value="审批流&lt;br&gt;apaas" style="rounded=1;whiteSpace=wrap;html=1;fontSize=12;align=center;verticalAlign=middle;fillColor=#ffe6cc;strokeColor=#d79b00;" vertex="1" parent="1">
          <mxGeometry x="359" y="950" width="170" height="50" as="geometry" />
        </mxCell>
        <mxCell id="7TQcLc4MDr7b2Hdm_d1O-86" value="规则引擎&lt;br&gt;apaas" style="rounded=1;whiteSpace=wrap;html=1;fontSize=12;align=center;verticalAlign=middle;fillColor=#ffe6cc;strokeColor=#d79b00;" vertex="1" parent="1">
          <mxGeometry x="110" y="950" width="170" height="50" as="geometry" />
        </mxCell>
        <mxCell id="7TQcLc4MDr7b2Hdm_d1O-87" value="商品中心" style="rounded=1;whiteSpace=wrap;html=1;fontSize=12;align=center;verticalAlign=middle;fillColor=#ffe6cc;strokeColor=#d79b00;" vertex="1" parent="1">
          <mxGeometry x="600" y="950" width="170" height="50" as="geometry" />
        </mxCell>
        <mxCell id="7TQcLc4MDr7b2Hdm_d1O-88" value="组织中心" style="rounded=1;whiteSpace=wrap;html=1;fontSize=12;align=center;verticalAlign=middle;fillColor=#ffe6cc;strokeColor=#d79b00;" vertex="1" parent="1">
          <mxGeometry x="845" y="950" width="170" height="50" as="geometry" />
        </mxCell>
        <mxCell id="7TQcLc4MDr7b2Hdm_d1O-89" value="事件中心" style="rounded=1;whiteSpace=wrap;html=1;fontSize=12;fontColor=#333333;align=center;verticalAlign=middle;fillColor=#f5f5f5;strokeColor=#666666;" vertex="1" parent="1">
          <mxGeometry x="1130" y="730" width="120" height="50" as="geometry" />
        </mxCell>
        <mxCell id="7TQcLc4MDr7b2Hdm_d1O-90" value="活动模版" style="rounded=1;whiteSpace=wrap;html=1;fontSize=12;fontColor=#333333;align=center;verticalAlign=middle;fillColor=#f5f5f5;strokeColor=#666666;" vertex="1" parent="1">
          <mxGeometry x="940" y="630" width="75" height="30" as="geometry" />
        </mxCell>
      </root>
    </mxGraphModel>
  </diagram>
</mxfile>
